<svg width="121" height="25" viewBox="0 0 121 25" fill="none" xmlns="http://www.w3.org/2000/svg">
<path d="M38.6405 4.0874H42.234V20.6839H38.6405V4.0874ZM43.4396 20.238C42.9644 19.9357 42.5671 19.5249 42.28 19.0391H41.8481V15.1825H42.234C42.2647 16.0352 42.481 16.64 42.8829 16.9968C43.2643 17.3471 43.764 17.5388 44.2809 17.5331C44.6532 17.5391 45.0198 17.4406 45.3392 17.2485C45.664 17.0419 45.921 16.7439 46.0782 16.3917C46.2719 15.9537 46.3649 15.4776 46.3504 14.9986C46.3504 14.1768 46.1573 13.5412 45.7711 13.0919C45.589 12.8746 45.3605 12.7013 45.1025 12.5848C44.8445 12.4683 44.5637 12.4116 44.2809 12.419C43.7674 12.4183 43.2739 12.6189 42.9054 12.9779C42.5028 13.3518 42.279 13.9189 42.234 14.6791H41.8481V11.2561H42.28C42.5662 10.6663 43.0062 10.1654 43.5532 9.80653C44.0991 9.44902 44.7586 9.26992 45.5316 9.26924C46.3313 9.25913 47.1156 9.48995 47.7833 9.93186C48.4506 10.3736 48.9814 11.0205 49.3758 11.8725C49.7702 12.7245 49.9674 13.7518 49.9674 14.9545C49.9674 16.1873 49.7549 17.2338 49.3298 18.094C48.9047 18.9542 48.3353 19.6004 47.6216 20.0325C46.9014 20.4681 46.0745 20.6933 45.2338 20.6828C44.5058 20.6835 43.9077 20.5352 43.4396 20.238Z" fill="#00113F"/>
<path d="M50.7156 4.0874H54.309V20.6839H50.7156V4.0874Z" fill="#00113F"/>
<path d="M55.9711 19.6852C55.312 19.0226 54.9825 18.287 54.9825 17.008V9.72632H58.5524V16.0721C58.5524 17.2597 59.0528 17.8535 60.0538 17.8535C60.6297 17.8535 61.0769 17.648 61.3956 17.2371C61.7142 16.8262 61.9189 16.1718 62.0097 15.2739H62.5552V18.8346H61.9411C61.5624 19.5044 61.1223 19.7838 60.6341 20.1414C60.1459 20.4989 59.4776 20.6776 58.6434 20.6776C57.5217 20.6776 56.6309 20.3468 55.9711 19.6852ZM61.9872 9.72632H65.5806V20.6838H61.9872V9.72632Z" fill="#00113F"/>
<path d="M68.9008 20.0594C68.0832 19.6424 67.4091 18.989 66.9654 18.1835C66.4918 17.35 66.2551 16.3346 66.2551 15.1374C66.2551 14.0122 66.4734 13.0407 66.9101 12.2229C67.3188 11.433 67.9536 10.784 68.7329 10.3593C69.5498 9.92677 70.4623 9.70839 71.3858 9.72446C72.3328 9.72446 73.1625 9.92513 73.8749 10.3265C74.5872 10.7278 75.144 11.3524 75.5452 12.2003C75.945 13.0482 76.1453 14.1296 76.146 15.4446V16.2315H68.7268V14.0875H73.3775L73.181 14.5262C73.181 13.9557 73.0244 13.5174 72.7112 13.2112C72.398 12.9051 71.9651 12.7516 71.4124 12.751C71.0487 12.744 70.6889 12.8266 70.3643 12.9914C70.0475 13.1659 69.796 13.4392 69.6479 13.7701C69.4732 14.1276 69.3859 14.5841 69.3859 15.1395V15.5782C69.3701 15.9856 69.4725 16.3889 69.6807 16.739C69.8754 17.0447 70.1565 17.2851 70.4882 17.4294C71.2406 17.7362 72.0826 17.7362 72.835 17.4294C73.148 17.2947 73.414 17.0698 73.5996 16.7832L75.5861 18.7773C75.1491 19.3817 74.5724 19.8707 73.9056 20.2022C73.2506 20.5227 72.4864 20.6833 71.613 20.684C70.6722 20.6963 69.7421 20.4821 68.9008 20.0594Z" fill="#00113F"/>
<path d="M76.8798 9.72426H78.633V20.6838H76.8798V9.72426ZM83.3851 11.6515C82.96 11.2331 82.3609 11.0238 81.5878 11.0238C80.7997 11.0238 80.1553 11.279 79.6545 11.7892C79.1536 12.2994 78.8132 13.1329 78.633 14.2897H78.2472V12.1426H78.6791C79.0428 11.2296 79.5013 10.5598 80.0547 10.1331C80.608 9.70646 81.3398 9.49346 82.25 9.49414C83.2803 9.49414 84.1254 9.79104 84.7852 10.3848C85.445 10.9786 85.7749 11.9149 85.7749 13.1935V20.6838H84.0217V13.6271C84.0217 12.7292 83.8095 12.0707 83.3851 11.6515ZM90.5146 11.6515C90.0827 11.2331 89.4877 11.0238 88.7297 11.0238C87.9252 11.0238 87.2692 11.2865 86.7615 11.8118C86.2539 12.3371 85.9243 13.1857 85.7728 14.3575H85.388V12.1426H85.6838C86.3204 10.377 87.5486 9.49414 89.3683 9.49414C90.3993 9.49414 91.2485 9.79104 91.9158 10.3848C92.5831 10.9786 92.9164 11.9149 92.9157 13.1935V20.6838H91.1625V13.6271C91.1625 12.7292 90.9465 12.0707 90.5146 11.6515Z" fill="#00113F"/>
<path d="M94.7078 8.7002C94.6304 8.6241 94.5693 8.53288 94.5282 8.43217C94.4872 8.33147 94.4672 8.2234 94.4694 8.11463C94.4683 8.0083 94.489 7.90288 94.53 7.80484C94.571 7.70679 94.6315 7.61819 94.7078 7.54446C94.7838 7.46669 94.8749 7.40533 94.9754 7.36417C95.0759 7.32301 95.1837 7.3029 95.2922 7.30509C95.5051 7.30855 95.7083 7.39512 95.8587 7.54644C96.0091 7.69777 96.0948 7.90194 96.0977 8.11565C96.0999 8.22443 96.0798 8.3325 96.0388 8.4332C95.9978 8.53391 95.9367 8.62512 95.8592 8.70123C95.7858 8.77731 95.6975 8.83752 95.6 8.87815C95.5025 8.91878 95.3978 8.93898 95.2922 8.93752C95.1839 8.93997 95.0761 8.92019 94.9756 8.87938C94.8751 8.83858 94.784 8.77761 94.7078 8.7002ZM94.4079 9.72753H96.1591V20.6809H94.4079V9.72753Z" fill="#00113F"/>
<path d="M97.2972 9.7244H99.0484V20.6819H97.2972V9.7244ZM102.141 11.025C101.292 11.025 100.61 11.2801 100.094 11.7904C99.5792 12.3006 99.2306 13.1338 99.0484 14.2898H98.6615V12.1438H99.0709C99.4332 11.2459 99.9033 10.5802 100.481 10.1466C101.059 9.7131 101.825 9.49634 102.778 9.49634C103.855 9.49634 104.73 9.79289 105.405 10.386C106.08 10.9791 106.417 11.915 106.416 13.1937V20.6819H104.665V13.6282C104.665 11.8927 103.824 11.025 102.141 11.025Z" fill="#00113F"/>
<path d="M109.958 20.1354C109.253 19.7395 108.688 19.1193 108.264 18.2749C107.839 17.4304 107.627 16.3764 107.627 15.1128C107.627 13.8505 107.836 12.7852 108.253 11.9167C108.669 11.0483 109.223 10.3977 109.913 9.96482C110.589 9.53505 111.375 9.30935 112.176 9.31453C113.054 9.31453 113.805 9.55047 114.427 10.0224C115.055 10.5037 115.51 11.1769 115.723 11.9404H116.041V14.52H115.769C115.678 13.3475 115.364 12.4492 114.825 11.8253C114.287 11.2014 113.586 10.8894 112.721 10.8894C112.102 10.8751 111.494 11.0547 110.981 11.4031C110.465 11.7755 110.063 12.2859 109.822 12.8763C109.528 13.5842 109.384 14.346 109.401 15.1128C109.401 16.0264 109.552 16.7835 109.855 17.3842C110.116 17.9396 110.536 18.4046 111.061 18.7197C111.551 19.0065 112.109 19.1562 112.676 19.1532C113.454 19.1632 114.207 18.8735 114.779 18.3437C115.378 17.8033 115.708 16.9393 115.769 15.7518H116.019V18.4916H115.723C115.429 19.1593 114.957 19.7321 114.359 20.1467C113.782 20.535 113.13 20.7292 112.312 20.7292C111.489 20.7356 110.679 20.5312 109.958 20.1354ZM115.769 4.22412H117.525V20.684H115.774L115.769 4.22412Z" fill="#00113F"/>
<path d="M118.688 20.4208C118.602 20.336 118.533 20.2349 118.487 20.1232C118.44 20.0115 118.416 19.8916 118.416 19.7705C118.416 19.6494 118.44 19.5294 118.487 19.4178C118.533 19.3061 118.602 19.2049 118.688 19.1202C118.771 19.0363 118.871 18.9698 118.98 18.9247C119.089 18.8795 119.206 18.8566 119.325 18.8572C119.474 18.8568 119.621 18.8934 119.753 18.9637C119.885 19.034 119.998 19.1359 120.082 19.2603C120.165 19.3848 120.217 19.5279 120.232 19.6772C120.247 19.8264 120.226 19.9771 120.169 20.116C120.113 20.2548 120.023 20.3776 119.908 20.4734C119.793 20.5692 119.656 20.635 119.51 20.6652C119.363 20.6953 119.212 20.6888 119.068 20.6461C118.925 20.6035 118.794 20.5261 118.688 20.4208Z" fill="#00113F"/>
<path d="M20.3632 5.68489C19.2231 6.04651 18.9426 7.70461 19.7491 8.5162C20.7726 9.54353 22.1031 8.58811 23.2484 8.56346C26.9043 8.48333 27.0159 12.3646 29.4691 12.4858C32.8466 12.6532 33.6654 7.68407 30.4926 6.84474C28.1048 6.21293 26.8736 9.16753 23.6568 7.24437C22.4685 6.53243 22.1431 5.12089 20.3632 5.68489Z" fill="#0144D3"/>
<path d="M22.1124 18.2574C21.5761 16.625 19.5127 17.7653 18.4196 17.7602C15.1189 17.7417 15.1854 14.5405 13.0791 14.1717C12.1805 14.0135 11.2133 14.2097 10.5685 14.8908C9.27587 16.25 9.74974 18.8183 11.6329 19.3176C13.6543 19.8528 14.5529 18.2245 16.8179 18.4957C18.3941 18.6878 19.4472 20.4405 20.2701 20.5802C21.7378 20.8288 22.5617 19.6217 22.1124 18.2574Z" fill="#0144D3"/>
<path d="M32.2254 15.1281C31.6717 14.6761 30.9378 14.5785 30.2306 14.4819C29.5694 14.3967 28.9001 14.3289 28.2573 14.1501C27.5877 13.9682 26.9631 13.6485 26.4233 13.2111C25.6904 12.6317 25.0641 11.8602 24.2565 11.3619C23.5964 10.9397 22.7694 10.7363 22.0049 10.9746H21.9967C19.4472 11.8345 19.7829 15.6294 22.3539 16.2315C23.4245 16.4986 24.5267 16.102 25.5799 15.9233C26.5749 15.7329 27.6044 15.868 28.5173 16.3085C29.3197 16.6506 30.1068 17.1982 30.9563 17.3625C31.6051 17.5012 32.3676 17.2701 32.6317 16.6527C32.8835 16.1554 32.6788 15.4825 32.2254 15.1281Z" fill="#0144D3"/>
<path d="M11.7189 10.2472C12.0454 8.64974 10.7538 7.35326 9.15305 7.65529H9.14384C8.85614 7.70507 8.58216 7.81527 8.33983 7.97867C8.0975 8.14208 7.89227 8.355 7.73757 8.60351C7.12349 9.66783 7.54107 10.8975 7.51548 12.0862C7.51599 12.4487 7.47409 12.8101 7.39061 13.1628C7.25394 13.6951 7.03277 14.2019 6.73559 14.6637C6.26069 15.4794 5.56984 16.2366 5.77556 17.1632C5.84664 17.4333 6.02095 17.6644 6.26069 17.8063C6.80518 18.134 7.48887 17.8916 7.8041 17.3368C8.11114 16.8396 8.21349 16.1225 8.32607 15.5123C8.4755 14.6308 8.76924 13.7515 9.36184 13.0683C10.1622 12.0872 11.4395 11.5304 11.7189 10.2472Z" fill="#0144D3"/>
<path d="M26.7497 17.1643C24.8655 17.3441 24.9822 19.1019 24.5656 20.2854C23.7202 22.6842 21.2004 22.0318 20.5904 22.9841C19.7921 24.2293 21.2291 25.4374 22.444 24.8446C23.1891 24.482 23.3098 21.9681 25.368 21.5572C26.6075 21.3096 27.8776 21.9383 28.7537 20.573C29.724 19.0567 28.5408 16.9928 26.7497 17.1643Z" fill="#0144D3"/>
<path d="M10.7865 5.99323C12.2552 5.65421 11.6278 3.15576 13.8754 2.63387C14.6379 2.45717 15.689 2.84448 16.127 1.88495C16.4832 1.09494 15.7463 0.258694 15.0135 0.324443C14.0647 0.408683 13.4783 2.61949 11.7066 2.76332C11.2123 2.80338 10.6985 2.53833 10.1468 2.55785C7.54618 2.64415 7.91054 6.65483 10.7865 5.99323Z" fill="#0144D3"/>
<path d="M15.907 6.04854C17.1741 6.23038 17.0246 5.16093 17.5118 4.43872C18.7031 2.67069 20.4779 3.74938 21.4205 2.82376C22.7244 1.54063 21.2772 -0.706134 19.2794 0.216405C18.2927 0.672538 18.7124 2.18785 17.9754 3.05902C17.2385 3.93019 15.7627 3.87163 15.3717 4.25072C14.8354 4.76952 15.0299 5.92321 15.907 6.04854Z" fill="#0144D3"/>
<path d="M25.9514 5.76407C28.5951 5.50416 27.9083 1.4041 25.3701 1.93009C23.0581 2.40883 23.5698 5.99933 25.9514 5.76407Z" fill="#0144D3"/>
<path d="M18.043 14.2589C19.3305 12.8032 17.9325 10.5841 16.0595 11.1368H16.0513C14.7351 11.5272 14.3339 13.1709 15.2192 14.1901C15.9295 15.0417 17.303 15.0736 18.043 14.2589Z" fill="#0144D3"/>
<path d="M3.81662 11.1452H3.80843C2.89242 11.4421 2.58026 12.6933 3.34173 13.3447C4.14311 14.0638 5.31193 13.5347 5.42656 12.494C5.53197 11.6373 4.62926 10.8894 3.81662 11.1452Z" fill="#0144D3"/>
<path d="M14.6123 7.02878C13.5888 6.82332 12.6994 7.89276 13.1416 8.8564C13.4906 9.66696 14.6972 9.78099 15.2816 9.19233V9.18617C15.9531 8.51841 15.5713 7.1911 14.6123 7.02878Z" fill="#0144D3"/>
<path d="M2.39091 7.48785C1.81776 6.9146 0.715475 7.09644 0.369539 7.85357C-0.174953 9.01035 1.02661 10.2185 2.16984 9.61955C2.91084 9.21787 2.97737 8.05185 2.39705 7.49915L2.39091 7.48785Z" fill="#0144D3"/>
<path d="M33.5303 12.3277C32.4045 13.469 34.0206 15.4785 35.3112 14.2282C36.525 13.0519 34.5947 11.2531 33.5303 12.3277Z" fill="#0144D3"/>
<path d="M4.34474 5.64071C3.5413 6.44408 4.62312 7.74879 5.57291 6.98651C6.55545 6.19239 5.24949 4.73256 4.34474 5.64071Z" fill="#0144D3"/>
</svg>
